<?xml version="1.0" standalone="no"?>
<!DOCTYPE svg PUBLIC "-//W3C//DTD SVG 20010904//EN"
 "http://www.w3.org/TR/2001/REC-SVG-20010904/DTD/svg10.dtd">
<svg version="1.0" xmlns="http://www.w3.org/2000/svg"
 width="1080.000000pt" height="1080.000000pt" viewBox="0 0 1080.000000 1080.000000"
 preserveAspectRatio="xMidYMid meet">

<g transform="translate(0.000000,1080.000000) scale(0.100000,-0.100000)"
fill="#000000" stroke="none">
<path d="M5675 9868 c-38 -10 -120 -23 -182 -29 -104 -10 -115 -10 -168 10
-72 27 -270 30 -330 5 -20 -8 -71 -17 -113 -18 -43 -2 -127 -7 -188 -11 -104
-7 -116 -6 -168 15 -55 23 -57 23 -112 6 -36 -11 -69 -15 -93 -11 -26 4 -57 0
-99 -14 -44 -15 -82 -20 -134 -19 -40 2 -111 -3 -158 -10 -173 -27 -251 -32
-288 -16 -45 18 -100 18 -148 -2 -27 -11 -77 -17 -174 -19 -74 -1 -147 -7
-162 -13 -15 -6 -49 -9 -76 -5 -67 8 -183 -19 -268 -62 -67 -34 -69 -34 -198
-34 -178 0 -305 -14 -359 -40 -24 -12 -52 -21 -63 -21 -10 0 -44 -8 -74 -16
-30 -9 -87 -17 -127 -18 -63 -2 -78 -6 -131 -39 -33 -20 -73 -37 -89 -37 -77
0 -254 -72 -299 -121 -31 -34 -114 -221 -114 -256 0 -17 5 -44 11 -62 9 -26 8
-41 -6 -79 -10 -25 -17 -64 -16 -86 0 -23 1 -57 0 -76 0 -31 0 -79 3 -315 1
-38 -5 -91 -12 -117 -11 -39 -11 -53 2 -92 13 -40 13 -62 1 -183 -11 -111 -11
-193 -3 -423 6 -157 15 -316 21 -353 6 -37 8 -76 4 -85 -4 -9 -10 -98 -12
-198 -3 -140 -1 -198 11 -257 9 -42 16 -120 16 -174 0 -87 3 -103 25 -138 28
-47 30 -76 11 -165 -38 -173 -38 -174 -27 -218 7 -24 14 -102 16 -175 14 -400
13 -387 40 -438 29 -56 33 -118 16 -229 -12 -78 -7 -137 14 -180 22 -44 25
-103 14 -270 -9 -152 -8 -168 10 -229 12 -41 20 -96 20 -145 0 -43 8 -115 17
-159 17 -83 14 -124 -12 -177 -21 -41 -13 -103 21 -164 l26 -46 -12 -129 c-12
-123 -11 -133 11 -225 20 -82 22 -111 17 -199 -4 -61 -2 -128 4 -167 7 -36 12
-108 13 -161 1 -65 6 -102 15 -113 10 -12 15 -66 19 -199 5 -176 5 -207 1
-327 -2 -41 4 -67 21 -99 19 -39 21 -53 15 -105 -10 -87 -7 -123 15 -167 24
-46 25 -70 4 -111 -21 -40 -15 -100 16 -163 20 -41 22 -57 17 -129 -4 -56 -1
-103 9 -147 8 -35 19 -89 25 -119 5 -30 14 -67 20 -83 21 -51 109 -107 168
-107 39 0 129 50 159 88 74 92 214 212 249 212 37 1 101 30 144 67 19 16 55
41 80 56 25 14 51 33 59 42 7 8 33 24 59 36 25 11 55 28 66 38 11 10 41 26 68
35 35 13 64 36 114 92 36 40 75 76 87 80 12 3 66 27 121 53 55 26 114 53 131
60 17 7 41 25 53 42 14 19 31 29 47 29 41 0 93 27 149 79 34 30 67 51 88 55
19 4 54 23 78 44 43 36 80 57 189 105 30 14 83 50 117 80 62 55 125 85 287
139 66 22 120 54 155 92 14 14 30 26 37 26 7 0 39 11 71 24 32 13 100 37 152
52 65 20 105 39 133 63 22 19 66 47 98 62 32 15 61 32 64 38 4 6 33 18 64 27
31 9 68 24 82 34 24 17 112 56 194 86 23 9 51 12 69 8 17 -3 49 -6 71 -5 107
3 281 -46 340 -96 41 -34 75 -49 128 -57 85 -13 160 -48 193 -93 40 -53 80
-78 138 -87 84 -13 126 -33 199 -98 38 -35 103 -92 143 -128 73 -65 105 -82
180 -95 30 -5 54 -22 105 -70 118 -114 230 -210 272 -232 23 -13 58 -40 79
-62 46 -47 133 -99 197 -116 87 -23 264 -163 304 -240 25 -48 35 -56 113 -97
33 -17 74 -42 92 -57 17 -14 59 -48 94 -76 34 -27 88 -75 119 -106 31 -31 70
-59 86 -63 16 -4 46 -18 66 -32 21 -13 42 -24 48 -24 6 0 37 -27 69 -59 40
-41 72 -63 98 -70 22 -6 48 -20 59 -32 22 -25 60 -45 118 -64 22 -8 81 -27
129 -44 108 -38 159 -39 218 -6 24 14 63 34 86 44 49 23 84 72 109 151 9 30
27 73 40 95 12 22 27 73 33 114 7 41 14 77 16 81 3 4 0 57 -7 118 -10 105 -10
112 12 156 26 54 28 89 12 206 -18 127 -15 208 8 259 18 39 20 63 18 230 -5
450 -2 559 19 701 9 62 13 127 9 160 -9 79 -17 283 -14 360 3 57 3 164 0 345
-1 28 -1 84 -1 125 0 41 -1 105 -1 143 0 49 5 78 20 108 18 34 21 59 22 182 0
78 -3 178 -7 222 -4 44 -7 94 -7 110 4 100 1 163 -9 192 -13 40 -3 145 17 184
18 35 13 424 -6 459 -9 16 -10 42 -5 84 11 92 5 312 -14 479 -8 69 -7 95 4
127 17 48 13 222 -6 263 -9 20 -9 40 1 85 13 64 16 420 5 575 -6 68 -3 101 9
140 15 48 15 56 0 107 -27 91 -29 145 -6 198 18 42 20 63 16 197 -2 83 -8 179
-13 215 -18 118 -22 219 -11 239 5 11 10 46 11 78 0 32 7 83 16 114 11 43 12
62 4 77 -6 11 -11 34 -11 51 0 17 -11 74 -25 126 -24 91 -24 98 -9 155 13 53
13 67 0 122 -8 35 -17 84 -20 109 -3 26 -12 62 -20 80 -8 19 -19 72 -25 119
-15 122 -39 221 -60 250 -9 13 -36 34 -59 46 -37 20 -57 22 -219 23 -98 1
-209 7 -248 13 -98 14 -198 15 -278 0 -62 -11 -70 -11 -107 8 -46 23 -69 25
-153 15 -43 -6 -74 -3 -123 10 -47 13 -79 15 -117 10 -29 -4 -70 -7 -92 -6
-134 3 -241 10 -315 21 -47 7 -166 14 -265 15 -99 1 -199 6 -222 9 -24 5 -57
2 -81 -5 -36 -10 -47 -9 -91 10 -57 24 -83 26 -146 9 -36 -10 -50 -10 -65 0
-28 17 -117 15 -172 -5 -45 -16 -49 -16 -123 6 -84 25 -109 25 -231 -8 -77
-20 -84 -20 -120 -5 -28 12 -56 15 -97 11 -37 -3 -71 0 -90 8 -52 21 -118 22
-192 3z m695 -388 c67 -34 106 -37 178 -14 47 15 54 15 92 0 55 -22 240 -30
345 -15 65 9 95 8 160 -4 83 -16 127 -13 175 13 16 9 61 14 125 14 85 1 108
-3 155 -23 45 -20 70 -24 135 -23 57 1 98 -5 142 -20 65 -21 89 -20 170 13 28
12 40 10 98 -10 69 -25 124 -25 356 -5 57 5 72 3 115 -19 43 -22 67 -26 179
-30 72 -3 131 -6 132 -6 20 -7 33 -41 33 -86 0 -46 5 -60 36 -101 41 -53 41
-52 29 -286 -7 -129 -6 -140 14 -179 23 -43 24 -89 6 -224 -3 -27 1 -115 9
-194 8 -79 13 -148 10 -153 -4 -5 -8 -46 -11 -91 -2 -45 -6 -113 -8 -152 -3
-38 -7 -111 -11 -162 -4 -70 -2 -104 11 -149 13 -45 15 -80 11 -157 -4 -55 -9
-104 -13 -110 -12 -19 -13 -230 -1 -283 9 -43 8 -55 -8 -85 -16 -29 -18 -54
-15 -183 2 -105 7 -161 18 -188 10 -25 13 -51 8 -76 -19 -108 -17 -143 10
-220 26 -72 27 -82 21 -206 -12 -256 -18 -528 -15 -621 2 -33 -3 -86 -11 -117
-12 -47 -12 -66 -1 -107 9 -36 10 -64 2 -103 -6 -36 -6 -69 0 -98 7 -30 6 -66
-2 -116 -8 -52 -9 -86 -1 -116 7 -29 7 -90 0 -188 -11 -163 -11 -195 -2 -545
11 -394 7 -602 -12 -652 -12 -31 -15 -58 -10 -100 18 -161 18 -171 2 -215 -10
-25 -16 -69 -15 -108 0 -36 -2 -95 -6 -133 -5 -43 -3 -77 4 -95 18 -44 22
-269 5 -317 -7 -22 -14 -65 -14 -95 0 -30 -6 -86 -14 -123 -13 -59 -13 -76 -1
-122 13 -46 13 -72 1 -177 -8 -68 -14 -175 -15 -238 0 -99 -4 -127 -28 -200
l-28 -85 -64 -3 c-72 -3 -90 7 -122 70 -13 26 -38 48 -81 73 -35 20 -83 52
-107 71 -24 19 -63 40 -86 46 -31 8 -65 33 -130 95 -86 81 -120 102 -218 138
-35 12 -60 32 -95 73 -95 114 -180 179 -347 266 -66 34 -79 45 -100 86 -32 64
-88 110 -133 110 -11 0 -26 7 -33 17 -8 9 -57 44 -109 79 -52 34 -130 93 -172
131 -66 60 -85 71 -135 82 -98 22 -233 116 -284 198 -26 41 -101 87 -186 114
-49 15 -81 33 -113 64 -57 54 -119 95 -143 95 -10 0 -39 18 -65 39 -29 25 -68
46 -102 55 -71 19 -171 59 -241 96 -40 22 -71 30 -105 30 -31 0 -64 8 -89 21
-28 15 -54 21 -90 19 -27 -1 -84 -2 -126 -1 -52 1 -93 -5 -134 -19 -32 -11
-69 -20 -82 -20 -28 0 -74 -22 -92 -44 -8 -10 -29 -16 -53 -16 -44 0 -87 -16
-142 -54 -21 -14 -47 -26 -58 -26 -10 0 -37 -12 -60 -27 -119 -80 -167 -106
-203 -115 -22 -4 -53 -15 -70 -22 -16 -8 -50 -22 -75 -33 -25 -10 -61 -32 -80
-49 -19 -17 -53 -37 -75 -44 -58 -19 -124 -53 -169 -89 -22 -17 -71 -41 -110
-53 -105 -31 -184 -73 -242 -129 -32 -29 -62 -49 -76 -49 -13 0 -50 -13 -83
-30 -33 -16 -79 -34 -102 -40 -25 -6 -61 -28 -90 -55 -27 -24 -63 -47 -79 -51
-50 -12 -87 -35 -153 -96 -49 -46 -96 -76 -215 -134 -108 -54 -171 -92 -219
-134 -54 -46 -79 -61 -113 -66 -24 -3 -67 -21 -96 -39 -29 -19 -77 -46 -106
-60 -34 -17 -62 -42 -83 -71 -16 -24 -38 -44 -47 -44 -25 0 -91 -37 -132 -74
-19 -17 -54 -38 -78 -45 -67 -22 -72 -9 -66 173 3 96 1 161 -7 183 -6 19 -11
106 -11 201 -1 92 -6 178 -11 192 -9 22 -18 178 -18 310 0 25 -6 68 -13 96 -8
31 -11 80 -8 125 4 63 0 85 -23 149 -23 64 -27 92 -29 195 -1 81 2 129 11 147
16 32 17 90 3 138 -6 19 -13 73 -15 120 -3 47 -10 121 -16 165 -6 44 -12 134
-14 200 -2 66 -9 141 -16 165 -8 27 -14 99 -14 175 0 103 -4 139 -19 175 -27
66 -30 111 -12 173 24 84 20 188 -10 272 -36 99 -38 118 -19 155 25 48 25 166
0 210 -18 32 -20 58 -22 270 -3 321 -3 309 -1 366 2 38 -4 60 -22 88 -22 37
-23 42 -11 115 16 108 13 353 -6 415 -14 45 -14 56 1 122 10 41 14 79 10 85
-4 7 -8 82 -10 168 -1 86 -8 174 -14 196 -38 137 -48 237 -55 592 -5 226 -5
232 17 269 18 30 22 51 20 96 -4 89 -5 129 -1 173 1 22 -3 105 -10 185 -16
172 -12 218 24 287 20 37 29 74 34 130 l6 78 70 7 c48 6 92 19 140 42 45 22
91 37 130 41 33 3 70 13 83 21 19 12 30 13 54 5 50 -18 89 -13 178 20 84 31
160 42 362 53 56 3 79 10 142 45 82 45 108 48 199 26 41 -9 67 -11 90 -4 59
19 161 32 252 33 50 1 125 8 168 16 61 11 83 11 98 2 26 -16 53 -15 97 4 20 9
66 18 103 19 36 1 74 7 85 13 15 8 51 8 127 0 99 -10 115 -9 203 12 67 16 108
20 137 15 136 -22 142 -22 232 -3 113 25 344 32 392 12 26 -11 62 -12 205 -2
186 13 284 14 448 5 80 -5 116 -3 152 9 42 14 52 13 103 -1 62 -19 113 -14
179 15 59 27 99 24 166 -10z"/>
<path d="M2847 6999 c-42 -32 -75 -162 -98 -379 -16 -155 -6 -764 15 -900 18
-113 51 -198 88 -224 12 -9 39 -16 60 -16 30 0 41 6 59 31 22 32 22 32 13 263
-6 127 -8 241 -6 253 5 28 47 41 146 45 66 3 69 1 95 -28 115 -136 273 -301
359 -374 123 -104 198 -145 254 -137 52 7 68 22 68 66 0 52 -42 114 -163 240
-127 133 -231 250 -245 277 -14 27 -8 34 69 83 83 52 137 109 175 186 27 56
29 68 29 181 0 119 0 121 -38 198 -40 79 -65 104 -166 164 -91 53 -273 79
-445 63 -101 -10 -110 -9 -136 9 -37 27 -99 26 -133 -1z m577 -248 c29 -15 64
-44 87 -73 37 -47 39 -54 39 -116 0 -78 -15 -109 -81 -166 -76 -65 -303 -136
-438 -136 -54 0 -56 11 -44 233 6 114 16 214 23 229 12 25 37 40 85 52 11 2
79 4 150 3 115 -2 136 -5 179 -26z"/>
<path d="M5875 6786 c-25 -26 -37 -53 -49 -107 -17 -78 -50 -571 -42 -629 3
-19 8 -79 11 -132 14 -233 55 -349 130 -364 47 -9 73 19 86 90 6 32 8 70 4 84
-11 45 -7 599 4 621 6 11 39 42 74 68 60 46 65 48 138 51 91 5 139 -15 188
-77 62 -79 64 -90 72 -401 9 -379 23 -426 131 -418 72 5 73 7 76 417 3 390 -4
461 -54 546 -52 89 -160 155 -291 176 -63 10 -81 9 -135 -6 -35 -9 -80 -26
-100 -37 -20 -12 -43 -18 -51 -15 -9 3 -20 30 -27 63 -22 105 -100 139 -165
70z"/>
<path d="M7522 6795 c-159 -54 -254 -157 -328 -355 -28 -72 -29 -81 -29 -260
0 -177 1 -189 28 -267 49 -143 116 -226 229 -288 100 -55 207 -68 326 -40 161
38 274 144 342 322 122 316 54 706 -146 844 -107 73 -282 91 -422 44z m221
-216 c77 -21 151 -117 176 -229 24 -104 8 -256 -38 -363 -31 -71 -121 -162
-177 -177 -148 -42 -298 88 -324 279 -6 44 -8 104 -5 133 9 69 42 174 70 218
32 51 119 128 152 135 15 4 33 8 38 10 21 7 72 4 108 -6z"/>
<path d="M4778 6796 c-153 -35 -245 -106 -331 -256 -149 -259 -109 -624 88
-808 114 -108 206 -142 377 -142 108 0 124 3 195 31 43 17 97 45 120 62 118
90 112 262 -10 262 -34 0 -53 -8 -101 -45 -124 -96 -123 -95 -200 -95 -91 1
-152 27 -224 98 -60 58 -82 94 -82 131 0 21 7 27 38 35 34 8 203 21 497 37
189 10 209 25 208 154 -1 90 -16 171 -45 250 -49 136 -112 210 -223 262 -54
25 -80 30 -157 33 -55 3 -116 -1 -150 -9z m209 -227 c52 -25 107 -89 128 -149
21 -59 19 -85 -7 -97 -29 -13 -467 -47 -490 -38 -70 27 78 263 185 294 58 17
138 13 184 -10z"/>
</g>
</svg>
